<mxfile host="app.diagrams.net" modified="2024-04-23T14:30:13.516Z" agent="Mozilla/5.0 (Macintosh; Intel Mac OS X 10_15_7) AppleWebKit/537.36 (KHTML, like Gecko) Chrome/124.0.0.0 Safari/537.36" etag="cBUOkoJbtYzVa4tyU8P7" version="24.2.7" type="github">
  <diagram name="Page-1" id="74e2e168-ea6b-b213-b513-2b3c1d86103e">
    <mxGraphModel dx="1122" dy="812" grid="1" gridSize="10" guides="1" tooltips="1" connect="1" arrows="1" fold="1" page="1" pageScale="1" pageWidth="1100" pageHeight="850" background="none" math="0" shadow="0">
      <root>
        <mxCell id="0" />
        <mxCell id="1" parent="0" />
        <mxCell id="XTScBs_cfGnALNOD8KqI-3" value="" style="edgeStyle=none;curved=1;rounded=0;orthogonalLoop=1;jettySize=auto;html=1;fontSize=12;startSize=8;endSize=8;" edge="1" parent="1" source="XTScBs_cfGnALNOD8KqI-1" target="XTScBs_cfGnALNOD8KqI-2">
          <mxGeometry relative="1" as="geometry" />
        </mxCell>
        <mxCell id="XTScBs_cfGnALNOD8KqI-5" value="" style="edgeStyle=none;curved=1;rounded=0;orthogonalLoop=1;jettySize=auto;html=1;fontSize=12;startSize=8;endSize=8;" edge="1" parent="1" source="XTScBs_cfGnALNOD8KqI-1" target="XTScBs_cfGnALNOD8KqI-4">
          <mxGeometry relative="1" as="geometry" />
        </mxCell>
        <mxCell id="XTScBs_cfGnALNOD8KqI-1" value="" style="rounded=1;whiteSpace=wrap;html=1;" vertex="1" parent="1">
          <mxGeometry x="60" y="60" width="120" height="60" as="geometry" />
        </mxCell>
        <mxCell id="XTScBs_cfGnALNOD8KqI-2" value="" style="ellipse;shape=cloud;whiteSpace=wrap;html=1;rounded=1;" vertex="1" parent="1">
          <mxGeometry x="60" y="230" width="120" height="80" as="geometry" />
        </mxCell>
        <mxCell id="XTScBs_cfGnALNOD8KqI-7" value="" style="edgeStyle=none;curved=1;rounded=0;orthogonalLoop=1;jettySize=auto;html=1;fontSize=12;startSize=8;endSize=8;" edge="1" parent="1" source="XTScBs_cfGnALNOD8KqI-4" target="XTScBs_cfGnALNOD8KqI-6">
          <mxGeometry relative="1" as="geometry" />
        </mxCell>
        <mxCell id="XTScBs_cfGnALNOD8KqI-9" value="" style="edgeStyle=none;curved=1;rounded=0;orthogonalLoop=1;jettySize=auto;html=1;fontSize=12;startSize=8;endSize=8;" edge="1" parent="1" source="XTScBs_cfGnALNOD8KqI-4" target="XTScBs_cfGnALNOD8KqI-8">
          <mxGeometry relative="1" as="geometry" />
        </mxCell>
        <mxCell id="XTScBs_cfGnALNOD8KqI-4" value="" style="whiteSpace=wrap;html=1;rounded=1;" vertex="1" parent="1">
          <mxGeometry x="300" y="60" width="120" height="60" as="geometry" />
        </mxCell>
        <mxCell id="XTScBs_cfGnALNOD8KqI-6" value="" style="shape=tape;whiteSpace=wrap;html=1;rounded=1;" vertex="1" parent="1">
          <mxGeometry x="540" y="40" width="120" height="100" as="geometry" />
        </mxCell>
        <mxCell id="XTScBs_cfGnALNOD8KqI-11" value="" style="edgeStyle=none;curved=1;rounded=0;orthogonalLoop=1;jettySize=auto;html=1;fontSize=12;startSize=8;endSize=8;" edge="1" parent="1" source="XTScBs_cfGnALNOD8KqI-8" target="XTScBs_cfGnALNOD8KqI-10">
          <mxGeometry relative="1" as="geometry" />
        </mxCell>
        <mxCell id="XTScBs_cfGnALNOD8KqI-8" value="" style="shape=waypoint;sketch=0;size=6;pointerEvents=1;points=[];fillColor=default;resizable=0;rotatable=0;perimeter=centerPerimeter;snapToPoint=1;rounded=1;" vertex="1" parent="1">
          <mxGeometry x="350" y="260" width="20" height="20" as="geometry" />
        </mxCell>
        <mxCell id="XTScBs_cfGnALNOD8KqI-13" value="" style="edgeStyle=none;curved=1;rounded=0;orthogonalLoop=1;jettySize=auto;html=1;fontSize=12;startSize=8;endSize=8;" edge="1" parent="1" source="XTScBs_cfGnALNOD8KqI-10" target="XTScBs_cfGnALNOD8KqI-12">
          <mxGeometry relative="1" as="geometry" />
        </mxCell>
        <mxCell id="XTScBs_cfGnALNOD8KqI-10" value="" style="shape=waypoint;sketch=0;size=6;pointerEvents=1;points=[];fillColor=default;resizable=0;rotatable=0;perimeter=centerPerimeter;snapToPoint=1;rounded=1;" vertex="1" parent="1">
          <mxGeometry x="490" y="260" width="20" height="20" as="geometry" />
        </mxCell>
        <mxCell id="XTScBs_cfGnALNOD8KqI-12" value="" style="rounded=1;whiteSpace=wrap;html=1;sketch=0;pointerEvents=1;" vertex="1" parent="1">
          <mxGeometry x="440" y="380" width="120" height="60" as="geometry" />
        </mxCell>
      </root>
    </mxGraphModel>
  </diagram>
</mxfile>
